<?xml version="1.0" encoding="UTF-8" standalone="no"?>
<!-- Created with Inkscape (http://www.inkscape.org/) -->
<svg
   xmlns:svg="http://www.w3.org/2000/svg"
   xmlns="http://www.w3.org/2000/svg"
   version="1.0"
   width="688"
   height="688"
   id="svg2403"
   xml:space="preserve"><defs
     id="defs2406" /><g
     transform="matrix(1.25,0,0,-1.25,0,1052.5)"
     id="g2412"><g
       transform="scale(0.12,0.12)"
       id="g2414"><rect
         width="4586.6665"
         height="4586.6665"
         x="8.1380211e-05"
         y="-7016.6665"
         transform="scale(1,-1)"
         id="rect3262"
         style="opacity:1;fill:#000000;fill-opacity:1;stroke:#ffffff;stroke-width:0;stroke-linecap:round;stroke-linejoin:miter;stroke-miterlimit:4;stroke-dasharray:none;stroke-opacity:1" /><path
         d="M 2349.166,3710.4582 L 2466.9968,3710.4582"
         id="path2416"
         style="fill:#ffffff;stroke:#000000;stroke-width:1.94761622;stroke-linecap:round;stroke-linejoin:round;stroke-miterlimit:10;stroke-dasharray:none;stroke-opacity:1" /><g
         transform="translate(-118.28868,1214.2673)"
         id="g3280"><path
           d="M 2414.5449,5360.0794 C 1391.0725,5360.0793 562.28076,4531.4904 562.28076,3508.0181 C 562.28078,3274.5151 606.46458,3043.5367 691.91897,2827.3668 C 655.78466,2945.7285 637.75089,3069.5756 637.75089,3194.7765 C 637.7509,3774.1923 1030.1549,4279.477 1591.0684,4423.6006 L 1589.8512,4420.9632 C 1590.3223,4421.2768 1590.7892,4421.6882 1591.2713,4421.9776 C 1592.3607,4422.6313 1593.428,4423.1499 1594.5173,4423.8035 L 1602.4295,4424.615 C 1656.8089,4016.6879 2005.3444,3710.8948 2418.8053,3710.8948 C 2873.5736,3710.8948 3242.6876,4080.0087 3242.6876,4534.777 C 3242.6875,4990.5192 2873.5736,5358.6593 2418.8053,5358.6593 L 2401.3579,5338.7774 L 2414.5449,5360.0794 z"
           id="path3222"
           style="fill:#ffffff;stroke:#000000;stroke-width:0.29214245;stroke-linecap:round;stroke-linejoin:round;stroke-miterlimit:10;stroke-dasharray:none;stroke-opacity:1" /><path
           d="M 4036.0681,2621.4233 C 4524.2692,3520.9541 4191.3595,4644.6208 3291.8289,5132.8219 C 3086.603,5244.2038 2862.52,5315.5485 2631.766,5343.5565 C 2753.0304,5318.856 2870.4819,5275.6301 2980.5211,5215.9088 C 3489.7701,4939.5248 3746.6865,4353.6174 3605.7982,3791.8823 L 3604.0611,3794.2102 C 3604.1119,3793.6467 3604.251,3793.0401 3604.2752,3792.4782 C 3604.3301,3791.2091 3604.2768,3790.0234 3604.3316,3788.7543 L 3601.2708,3781.4133 C 3216.804,3928.2024 2781.7893,3767.739 2584.5662,3404.3479 C 2367.6398,3004.6518 2515.9852,2504.1682 2915.6814,2287.2413 C 3316.2337,2069.8504 3815.8613,2218.6605 4032.788,2618.3565 L 4023.6361,2643.1747 L 4036.0681,2621.4233 z"
           id="path3256"
           style="fill:#ffffff;stroke:#000000;stroke-width:0.29214245;stroke-linecap:round;stroke-linejoin:round;stroke-miterlimit:10;stroke-dasharray:none;stroke-opacity:1" /><path
           d="M 815.74359,2568.5503 C 1336.4368,1687.4292 2471.4292,1395.4568 3352.5504,1916.1498 C 3553.576,2034.9448 3729.95,2190.4938 3872.5785,2374.0395 C 3789.0628,2282.7143 3691.6157,2204.1814 3583.8286,2140.4851 C 3085.0019,1845.7065 2450.3593,1926.4682 2040.9158,2336.0433 L 2043.8056,2336.337 C 2043.2961,2336.5831 2042.7042,2336.7754 2042.2098,2337.0435 C 2041.0929,2337.6486 2040.1032,2338.3039 2038.9864,2338.9091 L 2034.2624,2345.3078 C 2357.7869,2599.6574 2443.7303,3055.2889 2233.3816,3411.2432 C 2002.0175,3802.7592 1496.4551,3932.747 1104.9388,3701.3831 C 712.58432,3469.5234 583.43494,2964.4564 814.79883,2572.9402 L 840.79178,2568.0347 L 815.74359,2568.5503 z"
           id="path3260"
           style="fill:#ffffff;stroke:#000000;stroke-width:0.29214245;stroke-linecap:round;stroke-linejoin:round;stroke-miterlimit:10;stroke-dasharray:none;stroke-opacity:1" /></g></g></g></svg>